<svg width="211" height="58" viewBox="0 0 211 58" fill="none" xmlns="http://www.w3.org/2000/svg">
<path d="M89.5662 47.8047H86.8199C86.7034 47.8047 86.6093 47.8992 86.6093 48.0153V48.6168C86.6093 48.7329 86.7034 48.8275 86.8199 48.8275H87.7004L87.6443 51.5257C87.6417 51.6439 87.7367 51.7405 87.8545 51.7405H88.5358C88.6523 51.7405 88.7464 51.6464 88.7464 51.5303V48.8275H89.5662C89.6823 48.8275 89.7768 48.7329 89.7768 48.6168V48.0153C89.7768 47.8992 89.6823 47.8047 89.5662 47.8047Z" fill="#333333"/>
<path d="M92.375 49.4187C91.9229 49.1144 91.4362 49.1439 91.0457 49.3081L91.0221 47.8299C91.0199 47.7151 90.9262 47.623 90.8114 47.623H90.2087C90.0904 47.623 89.9955 47.7201 89.998 47.8379L90.0909 51.8569C90.0938 51.9751 90.1934 52.0684 90.3116 52.0625L90.8862 52.0342C90.9993 52.0287 91.0879 51.9341 91.0862 51.8206L91.063 50.3833C91.1808 50.2697 91.3281 50.1832 91.5007 50.1975C92.009 50.2385 92.0149 51.279 91.9921 51.7408C91.9866 51.8599 92.0799 51.9599 92.1989 51.9616L92.7849 51.9709C92.8971 51.9726 92.9908 51.8864 92.9984 51.7741C93.0326 51.2562 93.0546 49.8763 92.375 49.4187Z" fill="#333333"/>
<path d="M94.8452 48.0123C93.6054 47.9807 93.0824 49.163 93.2495 50.3441C93.4163 51.5151 94.9191 52.1981 95.9516 51.177C96.0271 51.1027 96.0372 50.9841 95.9735 50.8992L95.7017 50.5358C95.6303 50.4399 95.494 50.4226 95.4011 50.4978C95.2319 50.6354 94.9338 50.8034 94.556 50.7185C94.3378 50.6696 94.215 50.456 94.1668 50.1905L95.9224 50.1791C95.9571 50.1787 95.99 50.1698 96.0187 50.155C96.1297 50.1487 96.22 50.0567 96.2175 49.9414C96.2052 49.3872 96.0516 48.0436 94.8452 48.0123ZM94.2078 49.4142C94.2694 49.1854 94.3733 48.9921 94.5071 48.9047C94.8561 48.6755 95.1373 48.9646 95.2994 49.3631L94.2078 49.4142Z" fill="#333333"/>
<path d="M99.6405 48.0683C99.5958 48.0371 99.5506 48.013 99.5063 47.9945C99.5442 47.9354 99.5806 47.8868 99.6118 47.8497C99.6718 47.7783 99.6692 47.6736 99.608 47.604L99.4792 47.4584C99.4083 47.3782 99.2859 47.3731 99.2066 47.4457C98.9584 47.6741 98.7954 47.9894 98.7608 48.2663C98.7414 48.2156 98.7144 48.1641 98.6785 48.1135C98.6663 48.0962 98.651 48.0806 98.6337 48.0683C98.589 48.0371 98.5443 48.013 98.4995 47.9945C98.5375 47.9354 98.5738 47.8872 98.6055 47.8497C98.6654 47.7787 98.6629 47.6736 98.6012 47.604L98.4729 47.4584C98.402 47.3782 98.2792 47.3731 98.2003 47.4457C97.8879 47.7327 97.7102 48.157 97.7532 48.4706C97.7532 48.585 97.79 48.7078 97.8744 48.8281C97.8866 48.8455 97.9018 48.8606 97.9191 48.8724C98.291 49.1333 98.6869 48.9379 98.7794 48.6141C98.798 48.6846 98.8304 48.7568 98.8807 48.8281C98.8929 48.8455 98.9081 48.8606 98.9254 48.8729C99.4704 49.2545 100.067 48.658 99.6853 48.1131C99.673 48.0962 99.6574 48.0806 99.6405 48.0683Z" fill="#333333"/>
<path d="M100.385 47.7057C100.341 47.7112 100.302 47.7301 100.272 47.7567C100.193 47.7892 100.138 47.8682 100.142 47.9585L100.276 51.6867C100.28 51.7998 100.373 51.8897 100.487 51.8897H101.042C101.161 51.8897 101.257 51.7905 101.252 51.6711L101.196 50.2287C102.03 50.1607 103.461 49.883 103.345 48.7724C103.211 47.4866 101.118 47.6191 100.385 47.7057ZM101.164 49.4089L101.127 48.4638C101.715 48.444 102.429 48.4955 102.38 48.8728C102.334 49.2337 101.655 49.3629 101.164 49.4089Z" fill="#333333"/>
<path d="M104.719 48.0522C104.14 48.11 103.827 48.4992 103.687 48.7398C103.628 48.8416 103.661 48.9707 103.763 49.0298L104.112 49.232C104.197 49.281 104.303 49.2641 104.371 49.1936C104.719 48.8319 105.233 48.7871 105.264 49.2759C105.268 49.3439 105.269 49.4414 105.268 49.5579C104.648 49.5212 103.57 49.5967 103.51 50.5638C103.435 51.7698 105.105 51.6499 105.234 51.639C105.24 51.6385 105.245 51.6385 105.251 51.6385H105.387L105.392 51.6377L105.397 51.6385H105.872C105.984 51.6385 106.076 51.552 106.082 51.4414C106.11 51.0045 106.172 49.9387 106.172 49.2531C106.172 48.4701 105.76 47.9484 104.719 48.0522ZM105.21 51.0028C104.83 50.9813 104.353 50.9061 104.339 50.663C104.319 50.3063 104.841 50.2911 105.244 50.3312C105.234 50.5625 105.222 50.7972 105.21 51.0028Z" fill="#333333"/>
<path d="M110.487 48.165L110.039 48.1451C109.919 48.1397 109.819 48.2355 109.819 48.3554C109.819 48.3554 109.818 50.6496 109.299 50.6555C108.973 50.6589 109.024 49.0417 109.055 48.4478C109.061 48.3275 108.965 48.227 108.844 48.227H108.417C108.307 48.227 108.215 48.3115 108.207 48.4208C108.182 48.7357 108.145 49.3862 108.187 50.0198C108.083 50.3077 107.919 50.6677 107.751 50.6555C107.426 50.6314 107.428 48.918 107.44 48.2748C107.443 48.1473 107.332 48.0472 107.206 48.062L106.748 48.1148C106.645 48.1266 106.567 48.211 106.562 48.3144C106.532 48.9898 106.485 51.3516 107.249 51.6023C107.721 51.7572 108.112 51.4833 108.397 51.143C108.87 51.8471 109.66 51.6627 110.002 51.3604C110.733 50.6264 110.688 48.3735 110.688 48.3735C110.687 48.2616 110.599 48.1696 110.487 48.165Z" fill="#333333"/>
<path d="M112.198 49.0529C112.21 48.8372 112.94 48.9027 113.298 48.9483C113.407 48.9618 113.508 48.8896 113.53 48.7815L113.624 48.3256C113.648 48.207 113.568 48.0926 113.448 48.0753C112.82 47.9841 111.058 47.8356 111.059 49.0319C111.06 49.9711 112.806 50.0931 112.739 50.4848C112.689 50.7722 111.775 50.7554 111.365 50.7334C111.255 50.7275 111.158 50.8081 111.144 50.9179L111.085 51.4054C111.071 51.5228 111.156 51.6291 111.274 51.6401C111.907 51.7001 113.73 51.7722 113.8 50.6338C113.872 49.4468 112.175 49.4438 112.198 49.0529Z" fill="#333333"/>
<path d="M115.043 48.9121H114.433C114.319 48.9121 114.225 49.0037 114.223 49.1181L114.16 52.0236C114.158 52.1413 114.253 52.2384 114.37 52.2384H114.952C115.066 52.2384 115.159 52.1481 115.163 52.0345L115.253 49.1291C115.257 49.0105 115.161 48.9121 115.043 48.9121Z" fill="#333333"/>
<path d="M114.7 47.4473C114.248 47.4473 114.038 47.7419 114.038 48.0513C114.038 48.4025 114.327 48.6554 114.718 48.6554C115.108 48.6554 115.377 48.4025 115.377 48.0513C115.377 47.7647 115.152 47.4473 114.7 47.4473Z" fill="#333333"/>
<path d="M117.957 51.0804C117.925 50.9858 117.831 50.9242 117.732 50.939C117.637 50.9525 117.511 50.9482 117.386 50.8773C117.186 50.7642 117.144 50.5257 117.128 50.0352H117.511C117.627 50.0352 117.721 49.9406 117.721 49.8246V49.3315C117.721 49.2163 117.628 49.1226 117.513 49.1213L117.111 49.1175C117.104 48.6663 117.097 48.2247 117.093 47.9753C117.091 47.8604 116.998 47.7684 116.883 47.7684L116.31 47.7676C116.194 47.7676 116.099 47.8617 116.099 47.9778C116.099 48.2323 116.1 48.6789 116.099 49.1087L115.771 49.1057C115.654 49.1049 115.558 49.199 115.558 49.3163V49.825C115.558 49.9411 115.653 50.0356 115.769 50.0356H116.102C116.115 50.6756 116.193 51.3721 116.64 51.7051C117.033 51.9976 117.643 51.9233 117.971 51.8528C118.094 51.8267 118.166 51.6992 118.126 51.5797L117.957 51.0804Z" fill="#333333"/>
<path d="M118.951 47.4473C118.499 47.4473 118.288 47.7419 118.288 48.0513C118.288 48.4025 118.578 48.6554 118.968 48.6554C119.358 48.6554 119.628 48.4025 119.628 48.0513C119.628 47.7647 119.403 47.4473 118.951 47.4473Z" fill="#333333"/>
<path d="M119.293 48.9121H118.683C118.569 48.9121 118.475 49.0037 118.472 49.1181L118.41 52.0236C118.407 52.1413 118.502 52.2384 118.62 52.2384H119.202C119.316 52.2384 119.409 52.1481 119.413 52.0345L119.503 49.1291C119.507 49.0105 119.411 48.9121 119.293 48.9121Z" fill="#333333"/>
<path d="M122.6 48.1836L121.942 48.0751C121.83 48.0565 121.722 48.1317 121.701 48.2444L121.274 50.5247L120.74 48.2878C120.713 48.1777 120.605 48.1084 120.495 48.13L119.985 48.2292C119.867 48.252 119.792 48.3693 119.821 48.4858L120.525 51.3609C120.546 51.4474 120.619 51.5107 120.708 51.5204L121.689 51.6234C121.791 51.6335 121.886 51.5698 121.914 51.471L122.768 48.4487C122.802 48.3275 122.724 48.2042 122.6 48.1836Z" fill="#333333"/>
<path d="M124.529 48.0123C123.288 47.9807 122.765 49.163 122.933 50.3441C123.099 51.5151 124.602 52.1981 125.635 51.177C125.71 51.1027 125.72 50.9841 125.657 50.8992L125.385 50.5358C125.314 50.4399 125.177 50.4226 125.084 50.4978C124.914 50.6354 124.617 50.8034 124.24 50.7185C124.022 50.6696 123.898 50.456 123.85 50.1905L125.606 50.1791C125.641 50.1787 125.673 50.1698 125.702 50.155C125.813 50.1487 125.903 50.0567 125.901 49.9414C125.889 49.3872 125.735 48.0436 124.529 48.0123ZM123.891 49.4142C123.953 49.1854 124.057 48.9921 124.19 48.9047C124.539 48.6755 124.821 48.9646 124.983 49.3631L123.891 49.4142Z" fill="#333333"/>
<path d="M127.878 47.5155C127.506 47.2546 127.109 47.4505 127.017 47.7743C126.999 47.7038 126.966 47.6316 126.916 47.5602C126.904 47.5429 126.889 47.5278 126.871 47.5155C126.327 47.1335 125.73 47.7304 126.112 48.2749C126.124 48.2922 126.139 48.3078 126.157 48.3201C126.201 48.3513 126.246 48.3749 126.291 48.3939C126.252 48.453 126.216 48.5012 126.185 48.5387C126.125 48.6096 126.128 48.7147 126.189 48.7848L126.318 48.93C126.388 49.0107 126.511 49.0153 126.59 48.9427C126.838 48.7139 127.001 48.399 127.036 48.1221C127.055 48.1728 127.082 48.2243 127.118 48.2749C127.131 48.2922 127.146 48.3078 127.163 48.3196C127.208 48.3513 127.253 48.3749 127.297 48.3939C127.259 48.453 127.223 48.5012 127.191 48.5387C127.131 48.6096 127.134 48.7147 127.196 48.7848L127.324 48.93C127.395 49.0107 127.518 49.0153 127.596 48.9427C127.909 48.6552 128.087 48.2314 128.043 47.9178C128.043 47.8034 128.007 47.6806 127.922 47.5602C127.91 47.5429 127.895 47.5278 127.878 47.5155Z" fill="#333333"/>
<path d="M130.647 47.8145C129.809 47.8145 128.882 48.4708 128.882 49.7925C128.882 51.1137 129.744 51.7292 130.647 51.7292C131.673 51.7292 132.412 50.8828 132.412 49.7427C132.412 48.6021 131.673 47.8145 130.647 47.8145ZM130.647 50.7372C130.246 50.7372 129.862 50.4337 129.862 49.7819C129.862 49.1306 130.274 48.8064 130.647 48.8064C131.103 48.8064 131.431 49.1952 131.431 49.7575C131.431 50.3197 131.103 50.7372 130.647 50.7372Z" fill="#333333"/>
<path d="M133.695 48.4449L133.696 48.3634C133.696 48.2465 133.601 48.1515 133.484 48.1523L132.96 48.1549C132.844 48.1553 132.751 48.2498 132.751 48.3663L132.762 51.3233C132.763 51.4394 132.857 51.5331 132.973 51.5331H133.474C133.59 51.5331 133.684 51.4394 133.684 51.3233L133.69 49.7412L133.693 49.7446C133.693 49.7446 134.099 49.051 134.404 49.1692C134.657 49.268 134.622 50.7159 134.6 51.2676C134.595 51.3845 134.686 51.4829 134.803 51.4867L135.279 51.5035C135.393 51.5073 135.489 51.4208 135.497 51.3073C135.539 50.6753 135.609 48.7598 134.962 48.3229C134.582 48.0666 134.091 48.165 133.695 48.4449Z" fill="#333333"/>
<path d="M136.756 47.7285H136.153C136.036 47.7285 135.942 47.8235 135.943 47.9404L135.971 51.737C135.972 51.856 136.072 51.951 136.192 51.9455L136.766 51.9189C136.878 51.9134 136.967 51.8205 136.967 51.7082V47.9387C136.967 47.8227 136.872 47.7285 136.756 47.7285Z" fill="#333333"/>
<path d="M138.017 47.4473C137.565 47.4473 137.354 47.7419 137.354 48.0513C137.354 48.4025 137.644 48.6554 138.034 48.6554C138.424 48.6554 138.694 48.4025 138.694 48.0513C138.694 47.7647 138.469 47.4473 138.017 47.4473Z" fill="#333333"/>
<path d="M138.359 48.9121H137.749C137.635 48.9121 137.541 49.0037 137.539 49.1181L137.476 52.0236C137.474 52.1413 137.569 52.2384 137.687 52.2384H138.269C138.383 52.2384 138.475 52.1481 138.479 52.0345L138.569 49.1291C138.573 49.0105 138.478 48.9121 138.359 48.9121Z" fill="#333333"/>
<path d="M139.998 48.4449L139.999 48.3634C139.999 48.2465 139.904 48.1515 139.787 48.1523L139.264 48.1549C139.147 48.1553 139.054 48.2498 139.054 48.3663L139.066 51.3233C139.066 51.4394 139.16 51.5331 139.276 51.5331H139.777C139.893 51.5331 139.987 51.4394 139.988 51.3233L139.993 49.7412L139.996 49.7446C139.996 49.7446 140.402 49.051 140.707 49.1692C140.961 49.268 140.925 50.7159 140.903 51.2676C140.898 51.3845 140.989 51.4829 141.106 51.4867L141.582 51.5035C141.696 51.5073 141.792 51.4208 141.8 51.3073C141.842 50.6753 141.912 48.7598 141.265 48.3229C140.885 48.0666 140.394 48.165 139.998 48.4449Z" fill="#333333"/>
<path d="M143.751 48.0123C142.511 47.9807 141.988 49.163 142.155 50.3441C142.322 51.5151 143.824 52.1981 144.857 51.177C144.933 51.1027 144.943 50.9841 144.879 50.8992L144.607 50.5358C144.536 50.4399 144.399 50.4226 144.307 50.4978C144.137 50.6354 143.84 50.8034 143.462 50.7185C143.244 50.6696 143.121 50.456 143.073 50.1905L144.828 50.1791C144.863 50.1787 144.896 50.1698 144.924 50.155C145.035 50.1487 145.125 50.0567 145.123 49.9414C145.111 49.3872 144.957 48.0436 143.751 48.0123ZM143.113 49.4142C143.175 49.1854 143.279 48.9921 143.412 48.9047C143.762 48.6755 144.043 48.9646 144.205 49.3631L143.113 49.4142Z" fill="#333333"/>
<path d="M147.737 48.8172C147.771 48.5699 148.534 48.6298 148.909 48.6746C149.023 48.6885 149.128 48.6079 149.143 48.4939L149.217 47.9511C149.232 47.8388 149.156 47.7349 149.044 47.7155C148.435 47.61 146.634 47.4179 146.635 48.8232C146.637 49.9152 148.424 50.2153 148.278 50.6438C148.151 51.0152 147.357 50.9604 146.949 50.9059C146.821 50.889 146.708 50.9895 146.711 51.1186L146.722 51.7176C146.725 51.8253 146.807 51.9139 146.915 51.9232C147.508 51.9756 149.306 52.0216 149.376 50.6851C149.448 49.3061 147.669 49.3115 147.737 48.8172Z" fill="#333333"/>
<path d="M151.234 48.0684C150.421 48.0684 149.614 48.6682 149.614 49.7881C149.614 50.908 150.234 51.6146 151.234 51.6146C152.315 51.6146 152.851 50.6167 152.851 49.7881C152.851 48.7957 152.167 48.0684 151.234 48.0684ZM151.233 50.7349C150.771 50.7349 150.484 50.379 150.484 49.8143C150.484 49.2499 150.857 48.9476 151.233 48.9476C151.664 48.9476 151.98 49.3145 151.98 49.8143C151.98 50.2321 151.733 50.7349 151.233 50.7349Z" fill="#333333"/>
<path d="M155.662 48.1523H155.161C155.045 48.1523 154.951 48.2461 154.951 48.3622L154.944 49.9447L154.942 49.9408C154.942 49.9408 154.536 50.6344 154.231 50.5162C153.982 50.4192 154.035 49.1604 154.067 48.6471C154.074 48.5285 153.983 48.4276 153.864 48.4234L153.388 48.4065C153.276 48.4022 153.18 48.4867 153.171 48.5981C153.12 49.1908 153.031 50.9286 153.673 51.3626C154.053 51.6192 154.544 51.5204 154.94 51.2406L154.939 51.322C154.939 51.439 155.034 51.5335 155.151 51.5331L155.675 51.5306C155.791 51.5301 155.885 51.4356 155.884 51.3191L155.873 48.3622C155.872 48.2461 155.778 48.1523 155.662 48.1523Z" fill="#333333"/>
<path d="M158.267 48.2894C157.863 48.1573 157.527 48.3215 157.277 48.5469V48.5026C157.277 48.3865 157.183 48.2919 157.066 48.2919H156.538C156.421 48.2919 156.326 48.3873 156.327 48.5042L156.355 51.2354C156.356 51.3506 156.45 51.4435 156.565 51.4435H157.066C157.183 51.4435 157.277 51.3493 157.277 51.2333V49.8677C157.277 49.8677 157.491 49.0551 157.818 49.1357C157.869 49.1484 157.912 49.1927 157.948 49.2653C157.996 49.3624 158.107 49.4101 158.209 49.3738L158.603 49.2328C158.706 49.1961 158.764 49.0868 158.736 48.9817C158.644 48.6351 158.497 48.365 158.267 48.2894Z" fill="#333333"/>
<path d="M161.32 50.5861C161.276 50.473 161.147 50.4198 161.036 50.4705C160.804 50.5764 160.416 50.6887 160.136 50.4384C159.711 50.0585 159.96 49.4127 160.225 49.2641C160.478 49.1218 160.875 49.156 161.102 49.1923C161.205 49.2088 161.305 49.1488 161.337 49.05L161.51 48.522C161.546 48.4122 161.486 48.2936 161.377 48.2569C160.951 48.1151 159.928 47.8791 159.305 48.6182C158.646 49.4025 158.832 50.6516 159.305 51.1332C159.746 51.5806 160.771 51.7584 161.43 51.3459C161.515 51.2928 161.55 51.1856 161.514 51.0914L161.32 50.5861Z" fill="#333333"/>
<path d="M163.332 48.0123C162.092 47.9807 161.569 49.163 161.736 50.3441C161.903 51.5151 163.405 52.1981 164.438 51.177C164.514 51.1027 164.524 50.9841 164.46 50.8992L164.188 50.5358C164.117 50.4399 163.98 50.4226 163.888 50.4978C163.718 50.6354 163.421 50.8034 163.043 50.7185C162.825 50.6696 162.702 50.456 162.654 50.1905L164.408 50.1791C164.444 50.1787 164.477 50.1698 164.505 50.155C164.617 50.1487 164.706 50.0567 164.704 49.9414C164.692 49.3872 164.538 48.0436 163.332 48.0123ZM162.694 49.4142C162.756 49.1854 162.86 48.9921 162.994 48.9047C163.343 48.6755 163.624 48.9646 163.786 49.3631L162.694 49.4142Z" fill="#333333"/>
<path d="M169.268 47.7748C169.278 47.652 169.181 47.5469 169.058 47.5469H166.519C166.4 47.5469 166.305 47.6452 166.309 47.7639L166.433 51.7947C166.437 51.9082 166.53 51.9986 166.643 51.9986H167.358C167.463 51.9986 167.547 51.9116 167.543 51.8073L167.479 49.961H168.467C168.583 49.961 168.678 49.8669 168.678 49.7508V49.259C168.678 49.1429 168.583 49.0484 168.467 49.0484H167.448L167.43 48.546L168.992 48.6279C169.106 48.6338 169.204 48.5481 169.213 48.435L169.268 47.7748Z" fill="#333333"/>
<path d="M170.809 48.0684C169.996 48.0684 169.188 48.6682 169.188 49.7881C169.188 50.908 169.809 51.6146 170.809 51.6146C171.89 51.6146 172.426 50.6167 172.426 49.7881C172.426 48.7957 171.741 48.0684 170.809 48.0684ZM170.808 50.7349C170.346 50.7349 170.059 50.379 170.059 49.8143C170.059 49.2499 170.432 48.9476 170.808 48.9476C171.239 48.9476 171.555 49.3145 171.555 49.8143C171.555 50.2321 171.308 50.7349 170.808 50.7349Z" fill="#333333"/>
<path d="M174.69 48.2894C174.287 48.1573 173.951 48.3215 173.701 48.5469V48.5026C173.701 48.3865 173.606 48.2919 173.49 48.2919H172.961C172.844 48.2919 172.75 48.3873 172.751 48.5042L172.779 51.2354C172.779 51.3506 172.874 51.4435 172.989 51.4435H173.49C173.606 51.4435 173.701 51.3493 173.701 51.2333V49.8677C173.701 49.8677 173.914 49.0551 174.242 49.1357C174.292 49.1484 174.336 49.1927 174.372 49.2653C174.42 49.3624 174.531 49.4101 174.633 49.3738L175.026 49.2328C175.129 49.1961 175.188 49.0868 175.16 48.9817C175.067 48.6351 174.92 48.365 174.69 48.2894Z" fill="#333333"/>
<path d="M179.426 47.5449H176.887C176.769 47.5449 176.673 47.6433 176.677 47.7619L176.802 51.7927C176.806 51.9063 176.898 51.9966 177.012 51.9966H177.727C177.832 51.9966 177.915 51.9096 177.912 51.8053L177.848 49.9594H178.836C178.952 49.9594 179.046 49.8653 179.046 49.7488V49.257C179.046 49.1409 178.952 49.0468 178.836 49.0468H177.816L177.798 48.5445L179.361 48.626C179.475 48.6319 179.572 48.5462 179.581 48.4331L179.636 47.7729C179.646 47.65 179.55 47.5449 179.426 47.5449Z" fill="#333333"/>
<path d="M180.788 48.9121H180.178C180.063 48.9121 179.97 49.0037 179.968 49.1181L179.905 52.0236C179.903 52.1413 179.998 52.2384 180.115 52.2384H180.698C180.811 52.2384 180.904 52.1481 180.908 52.0345L180.998 49.1291C181.002 49.0105 180.906 48.9121 180.788 48.9121Z" fill="#333333"/>
<path d="M180.446 47.4473C179.994 47.4473 179.783 47.7419 179.783 48.0513C179.783 48.4025 180.073 48.6554 180.463 48.6554C180.853 48.6554 181.123 48.4025 181.123 48.0513C181.123 47.7647 180.898 47.4473 180.446 47.4473Z" fill="#333333"/>
<path d="M182.427 48.4449L182.428 48.3634C182.428 48.2465 182.333 48.1515 182.216 48.1523L181.692 48.1549C181.576 48.1553 181.483 48.2498 181.483 48.3663L181.495 51.3233C181.495 51.4394 181.589 51.5331 181.705 51.5331H182.206C182.322 51.5331 182.416 51.4394 182.416 51.3233L182.422 49.7412L182.425 49.7446C182.425 49.7446 182.831 49.051 183.136 49.1692C183.389 49.268 183.354 50.7159 183.332 51.2676C183.327 51.3845 183.418 51.4829 183.535 51.4867L184.011 51.5035C184.125 51.5073 184.221 51.4208 184.229 51.3073C184.271 50.6753 184.341 48.7598 183.694 48.3229C183.314 48.0666 182.823 48.165 182.427 48.4449Z" fill="#333333"/>
<path d="M187.171 47.7188H186.654C186.539 47.7188 186.446 47.8099 186.443 47.9248L186.424 48.8386C185.643 48.8302 184.618 49.1253 184.527 50.2063C184.362 52.1797 186.747 51.9585 186.747 51.9585L186.747 51.9332L187.117 51.9493C187.236 51.9543 187.335 51.8602 187.337 51.7415L187.381 47.9319C187.383 47.8146 187.288 47.7188 187.171 47.7188ZM186.376 51.0531C185.955 50.9944 185.349 50.8234 185.362 50.3258C185.373 49.9129 185.974 49.7859 186.404 49.7479L186.376 51.0531Z" fill="#333333"/>
<path d="M188.409 47.4473C187.957 47.4473 187.746 47.7419 187.746 48.0513C187.746 48.4025 188.036 48.6554 188.426 48.6554C188.816 48.6554 189.086 48.4025 189.086 48.0513C189.086 47.7647 188.861 47.4473 188.409 47.4473Z" fill="#333333"/>
<path d="M188.751 48.9121H188.141C188.027 48.9121 187.933 49.0037 187.931 49.1181L187.868 52.0236C187.866 52.1413 187.96 52.2384 188.078 52.2384H188.66C188.774 52.2384 188.867 52.1481 188.871 52.0345L188.961 49.1291C188.965 49.0105 188.869 48.9121 188.751 48.9121Z" fill="#333333"/>
<path d="M190.39 48.4449L190.391 48.3634C190.391 48.2465 190.296 48.1515 190.179 48.1523L189.655 48.1549C189.539 48.1553 189.445 48.2498 189.446 48.3663L189.457 51.3233C189.458 51.4394 189.552 51.5331 189.668 51.5331H190.169C190.285 51.5331 190.379 51.4394 190.379 51.3233L190.385 49.7412L190.388 49.7446C190.388 49.7446 190.794 49.051 191.098 49.1692C191.352 49.268 191.317 50.7159 191.294 51.2676C191.29 51.3845 191.38 51.4829 191.497 51.4867L191.974 51.5035C192.088 51.5073 192.184 51.4208 192.192 51.3073C192.234 50.6753 192.304 48.7598 191.657 48.3229C191.277 48.0666 190.786 48.165 190.39 48.4449Z" fill="#333333"/>
<path d="M195.207 47.6941L194.656 47.6996C194.634 47.7 194.614 47.7042 194.593 47.7109C193.939 47.6443 192.608 47.6759 192.549 49.0178C192.482 50.5468 194.312 50.4349 194.443 50.4252H194.445C194.346 50.9077 194.134 50.9993 193.878 51.0166C193.665 51.0313 193.391 50.8523 193.224 50.7253C193.138 50.6594 193.015 50.6704 192.942 50.7511L192.595 51.1301C192.524 51.2078 192.521 51.3255 192.588 51.4066C192.766 51.6215 193.162 51.9912 193.795 51.9912C194.686 51.9912 195.249 51.5277 195.463 50.4366C195.635 49.5636 195.484 48.3323 195.417 47.8735C195.402 47.7696 195.312 47.6932 195.207 47.6941ZM193.494 49.1149C193.515 48.708 194.074 48.6417 194.493 48.6497C194.506 48.9444 194.516 49.2728 194.512 49.5814C194.104 49.5949 193.472 49.5467 193.494 49.1149Z" fill="#333333"/>
<path d="M197.455 47.7057C197.411 47.7112 197.373 47.7301 197.342 47.7567C197.264 47.7892 197.209 47.8682 197.212 47.9585L197.347 51.6867C197.351 51.7998 197.444 51.8897 197.557 51.8897H198.112C198.232 51.8897 198.327 51.7905 198.323 51.6711L198.266 50.2287C199.1 50.1607 200.531 49.883 200.415 48.7724C200.281 47.4866 198.188 47.6191 197.455 47.7057ZM198.234 49.4089L198.197 48.4638C198.785 48.444 199.499 48.4955 199.451 48.8728C199.405 49.2337 198.726 49.3629 198.234 49.4089Z" fill="#333333"/>
<path d="M202.216 48.0123C200.975 47.9807 200.452 49.163 200.62 50.3441C200.786 51.5151 202.289 52.1981 203.322 51.177C203.397 51.1027 203.407 50.9841 203.344 50.8992L203.072 50.5358C203.001 50.4399 202.864 50.4226 202.771 50.4978C202.601 50.6354 202.304 50.8034 201.926 50.7185C201.708 50.6696 201.585 50.456 201.537 50.1905L203.292 50.1791C203.327 50.1787 203.36 50.1698 203.389 50.155C203.5 50.1487 203.59 50.0567 203.587 49.9414C203.575 49.3872 203.422 48.0436 202.216 48.0123ZM201.578 49.4142C201.64 49.1854 201.744 48.9921 201.877 48.9047C202.226 48.6755 202.508 48.9646 202.669 49.3631L201.578 49.4142Z" fill="#333333"/>
<path d="M206.151 51.0804C206.119 50.9858 206.025 50.9242 205.926 50.939C205.831 50.9525 205.706 50.9482 205.581 50.8773C205.381 50.7642 205.338 50.5257 205.323 50.0352H205.705C205.822 50.0352 205.916 49.9406 205.916 49.8246V49.3315C205.916 49.2163 205.822 49.1226 205.707 49.1213L205.305 49.1175C205.298 48.6663 205.291 48.2247 205.287 47.9753C205.286 47.8604 205.192 47.7684 205.077 47.7684L204.505 47.7676C204.388 47.7676 204.294 47.8617 204.294 47.9778V49.1087L203.965 49.1057C203.848 49.1049 203.752 49.199 203.752 49.3163V49.825C203.752 49.9411 203.847 50.0356 203.963 50.0356H204.296C204.309 50.6756 204.387 51.3721 204.834 51.7051C205.227 51.9976 205.837 51.9233 206.165 51.8528C206.288 51.8267 206.36 51.6992 206.32 51.5797L206.151 51.0804Z" fill="#333333"/>
<path d="M207.626 49.0529C207.638 48.8372 208.369 48.9027 208.726 48.9483C208.835 48.9618 208.937 48.8896 208.959 48.7815L209.052 48.3256C209.077 48.207 208.996 48.0926 208.877 48.0753C208.249 47.9841 206.487 47.8356 206.488 49.0319C206.489 49.9711 208.234 50.0931 208.167 50.4848C208.119 50.7722 207.204 50.7554 206.794 50.7334C206.683 50.7275 206.587 50.8081 206.573 50.9179L206.514 51.4054C206.499 51.5228 206.585 51.6291 206.702 51.6401C207.335 51.7001 209.159 51.7722 209.229 50.6338C209.301 49.4468 207.603 49.4438 207.626 49.0529Z" fill="#333333"/>
<path d="M209.589 51.6681C210.149 52.0944 210.782 51.4617 210.355 50.9015C209.795 50.4752 209.162 51.1084 209.589 51.6681Z" fill="#333333"/>
<path d="M7.08148 13.4717C7.08148 13.4717 6.81893 24.1737 10.7028 24.1737C17.0456 24.1737 17.8945 10.5026 17.8945 10.484C17.8945 9.99981 17.5344 9.82758 17.1368 9.82758C17.1368 9.82758 7.08148 9.32653 7.08148 13.4717Z" fill="#333333"/>
<path d="M8.26423 9.9568C9.56858 9.2582 9.77289 7.09948 8.72097 5.13578C7.66905 3.17166 5.75896 2.14591 4.45461 2.84409C3.15068 3.5427 2.94595 5.70142 3.99787 7.66554C5.04979 9.62966 6.95989 10.6554 8.26423 9.9568Z" fill="#333333"/>
<path d="M17.9443 8.77725C18.8632 9.08498 19.9835 8.21288 20.447 6.82917C20.9105 5.44547 20.5411 4.07442 19.6222 3.7667C18.7036 3.45939 17.5829 4.33149 17.1198 5.71478C16.6564 7.09848 17.0257 8.46953 17.9443 8.77725Z" fill="#333333"/>
<path d="M3.40772 10.1097C2.23127 9.24643 0.812954 9.17974 0.240138 9.96108C-0.333522 10.742 0.155292 12.0755 1.33174 12.9383C2.50819 13.8015 3.92651 13.8682 4.49975 13.0873C5.07298 12.306 4.58417 10.9729 3.40772 10.1097Z" fill="#333333"/>
<path d="M13.5622 8.06404C15.0211 7.81879 15.9046 5.83863 15.5348 3.6415C15.1654 1.44437 13.683 -0.13816 12.2237 0.107091C10.7648 0.352765 9.88177 2.33293 10.2511 4.53006C10.6205 6.72719 12.103 8.30929 13.5622 8.06404Z" fill="#333333"/>
<path d="M141.038 34.5395C141.038 34.9561 141.375 35.2938 141.792 35.2938C142.209 35.2938 142.546 34.9561 142.546 34.5395C142.546 34.1228 142.209 33.7852 141.792 33.7852C141.375 33.7852 141.038 34.1228 141.038 34.5395Z" fill="#333333"/>
<path d="M208.915 7.79247C209.86 7.79247 210.587 7.0584 210.587 6.12341C210.587 5.20868 209.86 4.47461 208.915 4.47461C207.979 4.47461 207.233 5.20868 207.233 6.12341C207.233 7.0584 207.979 7.79247 208.915 7.79247ZM208.915 4.8064C209.641 4.8064 210.169 5.3999 210.169 6.13354C210.169 6.85747 209.641 7.44042 208.925 7.44042C208.188 7.44042 207.651 6.85747 207.651 6.12341C207.651 5.3999 208.188 4.8064 208.915 4.8064Z" fill="#333333"/>
<path d="M208.656 6.32452H208.836C209.044 6.32452 209.144 6.40515 209.174 6.58624C209.223 6.77704 209.254 6.92815 209.303 6.98852H209.711C209.671 6.92815 209.641 6.82727 209.592 6.57611C209.542 6.35492 209.452 6.23419 209.293 6.17425V6.15399C209.492 6.09362 209.632 5.95264 209.632 5.77155C209.632 5.61072 209.562 5.48028 209.472 5.40979C209.353 5.33972 209.214 5.28906 208.905 5.28906C208.636 5.28906 208.427 5.30932 208.278 5.33972V6.98852H208.656V6.32452ZM208.666 5.58075C208.706 5.57062 208.776 5.56091 208.875 5.56091C209.114 5.56091 209.223 5.66137 209.223 5.81207C209.223 5.98303 209.054 6.05352 208.845 6.05352H208.666V5.58075Z" fill="#333333"/>
<path d="M194.853 36.1568C194.692 36.5409 194.873 36.9833 195.258 37.1441C195.643 37.305 196.084 37.1235 196.245 36.7393C196.405 36.3548 196.224 35.9128 195.84 35.752C195.456 35.5912 195.014 35.7727 194.853 36.1568Z" fill="#333333"/>
<path d="M191.222 15.0453C191.222 14.6287 190.885 14.291 190.468 14.291C190.051 14.291 189.714 14.6287 189.714 15.0453C189.714 15.462 190.051 15.7997 190.468 15.7997C190.885 15.7997 191.222 15.462 191.222 15.0453Z" fill="#333333"/>
<path d="M177.091 17.7612C178.892 18.5645 180.669 18.5045 180.925 18.5581C180.547 18.7717 180.049 18.884 179.589 18.9296C180.131 20.1263 181.006 21.2926 182.337 21.5999C185.056 22.2272 187.637 19.681 187.266 16.9638C187.09 15.6729 186.398 14.3707 185.618 13.3335H193.05C193.965 13.3335 197.109 13.1094 196.376 14.8325C196.147 15.369 195.638 16.0427 195.332 16.5446C189.695 25.7996 184.254 33.5117 178.269 42.559C178.073 42.8549 177.826 43.1419 178.025 43.5244C178.246 43.9511 178.664 43.8908 179.05 43.8908C183.747 43.8916 203.563 43.873 203.563 43.873C205.704 43.873 209.909 41.6793 209.909 38.3027C209.909 38.0123 209.893 37.1681 209.626 37.1681C209.037 37.1681 208.843 37.6109 208.55 37.9503C207.282 39.4188 205.734 39.9794 203.74 39.9587C201.037 39.9304 194.167 39.9587 193.439 39.9587C191.649 39.9587 191.304 38.7599 192.224 37.2631C197.848 28.1039 203.467 20.4294 209.104 11.2774C209.374 10.838 209.541 10.4218 209.304 9.96377C209.099 9.5674 208.674 9.59399 208.275 9.5923C199.3 9.55473 176.71 9.53574 176.687 9.53954C174.815 9.53954 173.156 10.6497 171.724 12.1782C171.3 12.6299 170.391 12.9469 169.856 13.139C169.856 12.4078 169.855 11.1402 169.855 11.071C169.851 10.6725 169.889 10.204 169.508 9.98867C169.195 9.81223 168.935 10.0305 168.694 10.2289C168.64 10.2732 163.029 13.6227 159.971 14.2707C159.013 14.4733 158.792 14.9684 159.313 15.8228C159.313 15.8228 161.265 19.109 161.265 21.2441V38.163C161.265 39.7962 161.168 41.3441 160.505 42.8367C160.118 43.7097 160.26 43.9018 161.202 43.903C164.402 43.9081 167.602 43.9081 170.802 43.9034C171.75 43.9018 171.888 43.7088 171.516 42.8477C170.897 41.4125 170.606 39.7553 170.603 38.1896C170.593 33.1651 170.607 28.3044 170.606 23.28C170.605 21.2398 170.808 19.2259 171.361 17.2593C171.672 16.1541 172.072 15.0925 172.75 14.1904C172.89 14.4159 173.702 15.5083 173.988 15.7996C174.881 16.7075 176.04 17.2926 177.091 17.7612ZM183.858 18.4327C184.275 18.4327 184.612 18.7734 184.612 19.1938C184.612 19.6143 184.275 19.9549 183.858 19.9549C183.441 19.9549 183.104 19.6143 183.104 19.1938C183.104 18.7734 183.441 18.4327 183.858 18.4327Z" fill="#333333"/>
<path d="M100.61 33.4686C100.61 33.0532 100.272 32.7168 99.8557 32.7168C99.4391 32.7168 99.101 33.0532 99.101 33.4686C99.101 33.8835 99.4391 34.2204 99.8557 34.2204C100.272 34.2204 100.61 33.8835 100.61 33.4686Z" fill="#333333"/>
<path d="M159.392 23.3123C159.14 19.1341 157.665 15.6829 154.208 13.3312C150.87 11.0611 147.337 9.58324 143.655 9.58324H127.753C127.753 9.58324 126.951 9.60604 126.951 8.7314C126.951 6.87999 126.912 2.5617 126.911 2.50556C126.903 1.90911 126.806 1.5845 126.589 1.50176C126.405 1.43169 126.136 1.53384 125.748 1.81877C125.418 2.06192 125.082 2.29197 124.744 2.51612C123.939 3.04883 123.112 3.53089 122.261 3.9585C122.171 4.00366 122.095 4.04377 122.032 4.07965C119.802 5.05516 117.275 5.74828 117.202 5.76432C116.546 5.90827 116.196 6.32954 116.497 7.10582C116.625 7.43592 117.967 9.58324 116.643 9.58324C116.643 9.58324 99.8549 9.58873 98.8427 9.58873C94.2344 9.58873 88.2601 10.8627 86.8807 15.6077C85.0795 21.8006 92.0871 27.0307 96.7676 29.5524C99.0208 30.7669 101.315 31.8441 102.933 33.9142C102.964 33.953 102.998 33.9868 103.028 34.0265C104.575 36.0746 101.821 37.146 101.822 37.1523C101.922 37.2017 102.936 37.6736 103.093 37.7327C103.478 37.8771 103.906 37.8699 104.317 37.8576C104.033 37.9075 103.744 37.9307 103.457 37.9265C103.208 37.9231 102.961 37.9049 102.715 37.864C102.715 37.864 103.272 38.7141 103.508 39.1949C103.348 38.9594 102.788 38.3655 102.694 38.284C102.564 38.1717 100.958 37.33 100.958 37.33C99.7097 37.5263 98.4961 37.43 97.3117 37.1286C96.5012 36.9226 95.7042 36.6225 94.9208 36.2443C94.8009 36.1818 94.6823 36.1244 94.5611 36.0577C94.5063 36.0269 94.451 35.9961 94.3957 35.9636C91.0098 34.0459 87.2825 30.5305 87.1698 30.4233C86.9398 30.2473 86.7076 30.0742 86.4645 29.9176C86.2618 29.7867 86.044 29.693 85.8621 29.7394C85.6481 29.7935 85.5928 29.9665 85.5928 30.1704C85.5945 30.3068 85.6219 30.4516 85.6439 30.5714C85.6439 30.5714 86.9613 39.5955 94.3957 42.5343L94.3784 42.5107C96.6152 43.5001 99.063 43.9053 101.758 43.9053C105.893 43.9053 110.35 42.628 113.115 40.1164C115.177 38.2426 116.302 35.7251 115.828 32.9535C115.593 31.5723 115.164 30.1886 114.324 29.0311C113.515 27.9159 112.437 26.9969 111.255 26.2916C108.955 24.9188 105.559 23.9547 103.157 22.7859C101.576 22.0168 100.039 21.1717 98.8646 19.8268C97.7701 18.5731 97.2859 17.1691 98.0398 15.5537C98.7587 14.0138 100.61 13.625 102.161 13.5925C103.246 13.5697 105.594 13.4828 105.76 14.9859C105.93 16.5322 104.649 17.6428 104.518 19.1193C104.444 19.956 104.995 20.5313 105.637 20.9864C107.565 22.3549 110.04 22.6347 112.194 21.6575C114.738 20.5052 115.718 18.5229 114.886 16.1493C114.57 15.2485 114.101 14.468 113.519 13.7816H117.025C117.329 13.7884 117.57 14.0252 117.592 14.3245L117.61 30.3798C117.664 32.566 118.054 34.173 118.804 35.9146C119.782 38.0586 121.323 40.2055 123.487 41.5558C124.178 41.9868 124.924 42.3798 125.742 42.7226C127.98 43.6588 130.348 44.0328 132.781 43.8678C133.079 43.8475 133.474 43.8264 133.536 43.4533C133.54 43.4347 133.531 43.4195 133.531 43.4018C133.312 43.0674 132.803 42.7745 132.676 42.6871C131.397 41.8121 130.317 40.7361 129.486 39.4191C127.765 36.6934 126.966 33.7728 126.944 30.5811C126.936 29.2954 126.948 14.4123 126.948 14.3705L126.949 14.3684C126.949 14.0442 127.212 13.7816 127.537 13.7816H131.321C130.969 14.2574 130.65 14.7762 130.383 15.3574C129.329 17.6605 129.877 19.7905 131.865 21.0999C134.053 22.5402 137.455 22.4186 139.513 20.8306C140.367 20.1717 140.667 19.0193 140.237 18.032C139.872 17.1941 139.455 16.3823 139.272 15.4651C138.992 14.0598 139.583 13.0003 140.921 12.6263C143.629 11.8686 147.271 13.6981 148.455 16.4515C149.602 19.1172 148.98 22.3646 145.886 23.8146C144.857 24.2962 143.792 24.6521 142.696 24.9239C140.263 25.5271 137.213 25.8876 134.825 26.6782C133.115 27.2447 131.826 27.9982 130.699 29.5098C128.963 31.8378 129.352 35.3127 130.923 38.0641C133.258 42.1544 137.115 43.9053 142.711 43.9053C142.06 42.0885 139.778 40.7116 138.324 39.8847C136.58 38.8931 137.162 35.0045 137.162 35.0045C138.79 34.9252 139.216 34.7665 140.728 31.6719C142.24 28.5769 147.201 30.8386 147.201 30.8386C148.752 28.696 149.605 25.4819 149.605 25.4819C153.616 30.4815 152.512 35.2823 152.512 35.2823C154.062 37.9767 155.356 41.5512 156.061 43.9053C156.074 43.9053 159.719 43.4921 159.719 39.9151C159.719 39.9151 159.678 28.0248 159.392 23.3123Z" fill="#333333"/>
<path d="M32.4639 11.2603C27.8776 8.72249 23.3613 8.98252 19.5694 11.9509C19.3908 12.9534 19.1642 14.0425 18.8797 15.159C19.4723 14.3856 20.2482 13.8149 21.371 13.6634C22.5513 13.5043 23.5348 13.9538 24.425 14.6372C26.4326 16.1784 27.523 18.332 28.2693 20.6647C29.3782 24.1311 29.8645 27.706 29.6332 31.3346C29.4736 33.8327 29.1688 36.3435 27.4922 38.408C26.1342 40.0805 24.276 40.3903 22.4521 39.2244C20.3689 37.8922 19.2942 35.8213 18.4664 33.6064C17.2714 30.4101 16.7361 27.0885 16.7269 22.9568C16.7159 22.3038 16.7568 21.5617 16.8586 20.7765C16.826 21.026 15.1287 23.454 14.6872 23.8981C13.425 25.167 11.0958 26.4464 9.28025 25.6465C8.27222 25.202 7.49595 24.2569 7.12828 23.2324C7.06961 23.1071 7.0122 22.9792 6.9569 22.8474C6.95943 32.6301 7.0371 42.8669 7.0371 52.582C7.0371 54.2498 6.83026 55.2477 6.1439 56.769C5.79691 57.5385 5.88007 57.666 6.69983 57.6677C10.043 57.6748 13.6618 57.6752 17.005 57.6677C17.8252 57.666 17.8978 57.5457 17.5323 56.7673C16.9223 55.4676 16.6407 53.853 16.6353 52.4254C16.6171 47.7305 16.6006 43.2839 16.5935 38.5891C16.593 38.3599 19.0966 43.6537 28.0291 43.6537C33.9573 43.6537 36.8383 40.3747 38.7991 35.5355C40.5221 31.281 40.8522 25.9635 39.8206 21.5068C38.7999 17.099 36.5534 13.5233 32.4639 11.2603Z" fill="#50D9A3"/>
<path d="M73.6501 29.7698C71.8443 31.8487 70.8645 33.224 68.9886 34.8289C67.2643 36.3046 64.87 36.8432 62.6167 36.8348C59.5602 36.8225 55.5217 35.6718 54.3883 32.999C53.8877 31.8179 53.9257 31.5963 54.8818 30.7444C58.0832 27.8922 62.8024 28.1505 66.6366 26.7508C69.9472 25.5427 74.0127 23.4443 73.7472 18.4865C73.3774 11.592 66.3115 9.50973 60.4981 9.50002C58.9312 9.49749 55.9764 9.72586 54.4534 10.0847C49.9084 11.156 45.5846 13.7111 43.2495 17.9167C40.6125 22.6651 40.6285 28.6398 42.8983 33.5241C44.4639 36.8943 47.0743 39.7786 50.358 41.5418C54.0891 43.5452 60.1857 44.351 64.3411 43.3911C66.8518 42.8116 69.1807 41.5448 70.932 39.6415C73.1224 37.2611 74.3166 33.7597 74.3166 30.5933C74.3166 29.4211 73.6501 29.7698 73.6501 29.7698ZM51.9941 21.9517C52.0046 20.0218 52.1975 18.1041 52.9152 16.2898C53.6686 14.3835 54.7666 12.7824 57.0553 12.6431C59.4677 12.4962 60.9207 13.9403 61.8945 15.9074C63.745 19.6448 62.6665 23.1184 59.0595 25.2708C57.0861 26.4481 54.9371 27.3312 53.1216 28.8829C52.2343 26.5971 51.9814 24.2915 51.9941 21.9517Z" fill="#50D9A3"/>
<path d="M90.3086 42.44C89.0296 41.5595 87.9498 40.4768 87.1186 39.1513C85.3977 36.408 84.599 33.4683 84.5775 30.2564C84.5623 27.9841 84.6205 16.787 84.5775 14.0837C84.575 13.9052 84.5974 13.7127 84.6965 13.5599C84.9371 13.1893 85.5944 13.2344 85.9397 13.4159C86.09 13.4949 86.2457 13.6084 86.4116 13.6654C86.6028 13.7309 86.8172 13.7275 87.0156 13.7085C87.3309 13.6781 87.4462 13.4729 87.4812 13.2243C87.4812 13.2243 87.4812 10.2353 87.4795 10.2382C87.4766 9.72409 87.2934 9.52106 86.6779 9.57467C86.4622 9.59324 86.2542 9.66542 86.0676 9.7739C85.889 9.87733 85.7202 10.001 85.507 10.0158C85.2778 10.031 85.0136 9.97272 84.8413 9.8119C84.6007 9.58775 84.6083 9.20025 84.6087 8.89758C84.6091 8.52274 84.5454 2.42818 84.5446 2.37162C84.5281 1.26187 84.225 1.05587 83.3812 1.68061C82.2651 2.50712 81.1031 3.22303 79.8941 3.83384C78.3968 4.59028 76.8227 5.17576 75.1588 5.57044C75.0499 5.59619 74.9439 5.62743 74.8346 5.65149C74.179 5.79627 73.8291 6.2205 74.13 7.00185C74.2579 7.33363 74.4251 7.64558 74.5715 7.96934C74.7729 8.41426 75.1689 9.43916 74.4715 9.6612C74.1946 9.74942 73.9101 9.71312 73.631 9.65613C73.4361 9.61603 73.2398 9.5848 73.0422 9.56327C72.8881 9.54596 72.7151 9.5143 72.5619 9.55271C72.3044 9.61772 72.2681 9.88112 72.2727 10.1112C72.2727 10.7068 72.2727 11.3024 72.2731 11.898C72.2731 12.2796 72.2731 12.6616 72.2744 13.0436C72.2753 13.2311 72.3187 13.4544 72.4635 13.5903C72.6598 13.7743 72.9624 13.6996 73.1988 13.662C73.4559 13.6207 73.6467 13.47 73.8797 13.372C74.1085 13.2758 74.358 13.2589 74.6024 13.2859C74.9755 13.3269 75.1262 13.5734 75.1604 13.8976C75.1604 13.8976 75.1355 25.6756 75.2427 30.0538C75.3879 35.9727 77.9565 40.3767 83.4745 42.7098C85.7122 43.6566 88.0802 44.0348 90.5129 43.8676C90.8105 43.847 91.2685 43.8309 91.2685 43.4489C91.2685 43.004 90.472 42.5527 90.3086 42.44Z" fill="#50D9A3"/>
</svg>
