<svg width="215" height="63" viewBox="0 0 215 63" fill="none" xmlns="http://www.w3.org/2000/svg">
<path d="M17.075 11.9213C17.4901 11.9201 17.8662 12.1158 17.868 12.6369C17.868 12.6573 16.1023 27.242 11.0255 27.2606C8.43635 27.2705 7.24183 18.0922 7.23439 15.8933C7.2189 11.2949 17.075 11.9213 17.075 11.9213Z" fill="white"/>
<path fill-rule="evenodd" clip-rule="evenodd" d="M4.41999 3.4391C5.78552 2.67827 7.78548 3.79597 8.88646 5.9372C9.98743 8.0778 9.77368 10.4309 8.40815 11.1924C7.04262 11.9538 5.04327 10.8355 3.94168 8.69489C2.84071 6.55367 3.05446 4.20055 4.41999 3.4391ZM20.2989 4.4459C19.3373 4.11071 18.1639 5.06175 17.6787 6.56978C17.1936 8.0778 17.5809 9.5722 18.5424 9.90801C19.504 10.2432 20.6781 9.29278 21.162 7.78413C21.6471 6.2761 21.2605 4.7817 20.2989 4.4459ZM12.2402 0.486237C13.7569 0.159725 15.3696 1.82264 15.843 4.20117C16.3151 6.57907 15.4687 8.77234 13.952 9.09947C12.4353 9.42598 10.8226 7.76306 10.3499 5.38454C9.87714 3.00664 10.7235 0.813369 12.2402 0.486237ZM0.672224 11.8572C1.20381 10.9576 2.69016 10.9049 3.99063 11.7382C5.2911 12.5721 5.91439 13.9773 5.38342 14.8769C4.85121 15.7759 3.36611 15.8292 2.06439 14.9953C0.76392 14.162 0.140634 12.7568 0.672224 11.8572Z" fill="white"/>
<path d="M40.6437 24.6001C39.6041 19.9242 37.3154 16.1312 33.1488 13.731C28.3038 10.9392 23.5325 11.3295 19.584 14.8165C19.514 15.9274 19.3659 17.0203 19.1534 18.0847C19.7748 17.1522 20.6038 16.4546 21.8479 16.2805C23.0505 16.1114 24.0523 16.5884 24.9594 17.3133C27.0046 18.9478 28.1155 21.2321 28.8757 23.7067C30.0052 27.3838 30.5008 31.1756 30.2647 35.0249C30.1024 37.6748 29.792 40.3377 28.0839 42.5285C26.701 44.3017 24.8076 44.6307 22.9495 43.3941C20.8269 41.9808 19.7321 39.7838 18.8889 37.435C17.6714 34.0442 17.1262 30.5213 17.1169 26.1378C17.1045 25.3783 17.1516 24.5071 17.2798 23.5827C17.2129 23.7135 15.5847 26.5622 14.5891 27.4334C13.8028 28.1211 12.2787 29.2456 10.7087 29.2456C8.48136 29.2456 7.16292 26.6992 7.16292 25.5586C7.16292 36.0745 7.24532 47.1046 7.24532 57.563C7.24532 59.3324 7.03467 60.3907 6.33518 62.004C5.98141 62.8206 6.06629 62.9557 6.90146 62.9575C10.3072 62.9656 13.9943 62.9656 17.4 62.9575C18.2358 62.9557 18.3096 62.8287 17.9372 62.0028C17.3158 60.6242 17.0289 58.9111 17.0233 57.3969C17.0054 52.4168 16.988 47.7001 16.9806 42.72C16.9806 42.4771 19.5307 48.0922 28.631 48.0922C34.6705 48.0922 37.6054 44.614 39.6029 39.4809C41.3587 34.9679 41.6945 29.3274 40.6437 24.6001Z" fill="#50D9A3"/>
<path d="M89.9944 11.9173C89.0019 12.0066 88.1469 12.584 87.1289 12.3027C86.7466 12.1968 86.6488 11.8542 86.6506 11.4713C86.6655 8.64169 86.6258 7.12809 86.5855 4.29914C86.5694 3.12506 86.2603 2.90697 85.401 3.56805C82.7634 5.59528 79.8905 7.03516 76.6935 7.7681C76.0256 7.92114 75.6694 8.3697 75.9761 9.19621C76.2778 10.0085 76.5541 10.2897 76.7041 11.1435C76.942 12.5028 74.1818 11.975 73.4959 11.8882C73.0319 11.8294 72.8813 12.0115 72.8906 12.4849C72.9105 13.5493 72.9191 14.6149 72.8894 15.6787C72.8727 16.2711 73.1484 16.1942 73.5883 16.1354C74.5027 16.0133 75.1917 15.9662 76.1012 15.8175C76.8106 15.7017 77.03 16.8039 77.0287 17.5957C77.0207 22.7375 76.9885 28.4388 77.1099 33.5781C77.2573 39.8388 79.8744 44.4967 85.4957 46.9645C87.7757 47.9657 90.1877 48.3653 92.666 48.1887C92.9696 48.1676 93.4361 48.1503 93.4361 47.7463C93.4361 47.2755 92.6245 46.7978 92.4585 46.6788C91.1549 45.7476 90.0551 44.6027 89.2082 43.2006C87.4554 40.2991 86.7751 37.0836 86.7535 33.6865C86.738 31.2826 86.7281 19.4395 86.6847 16.5802C86.6779 16.1484 86.8228 15.8064 87.2683 15.7556C88.3315 15.6341 89.2757 16.3962 90.3389 16.2896C90.7534 16.2481 90.8321 15.9012 90.8104 15.509C90.7602 14.5995 90.7664 13.6825 90.8098 12.7724C90.8414 12.1119 90.679 11.8554 89.9944 11.9173Z" fill="#50D9A3"/>
<path d="M73.6735 33.3661C72.1953 35.6189 70.8756 38.3976 68.7529 40.0717C66.9097 41.5258 64.5566 42.2086 62.2611 42.1993C59.1472 42.1869 56.6391 39.6269 55.4849 36.7917C54.9744 35.5389 55.0134 35.3035 55.9874 34.4002C59.2488 31.3742 64.056 31.6487 67.9624 30.1636C71.3353 28.8823 74.0825 26.6562 73.8117 21.3973C73.4356 14.0839 66.2369 11.8752 60.3144 11.8653C58.7178 11.8622 57.1026 12.1044 55.5506 12.4848C50.9205 13.6217 46.5154 16.3317 44.1363 20.7926C41.4504 25.8297 41.4665 32.1673 43.7788 37.3487C45.3741 40.9236 48.0333 43.983 51.3784 45.8535C55.1794 47.9786 59.7847 48.833 64.0182 47.8151C66.5758 47.2005 68.9481 45.8566 70.7324 43.8374C72.9641 41.3127 73.992 37.5984 73.992 34.2397C73.992 32.9962 73.6735 33.3661 73.6735 33.3661ZM52.7216 25.0732C52.7321 23.0255 52.9292 20.9915 53.6596 19.0671C54.4273 17.0455 55.5462 15.3466 57.8777 15.1992C60.3355 15.0437 61.8156 16.5752 62.8076 18.6613C64.6929 22.6259 63.5938 26.3105 59.9197 28.5936C57.9093 29.8426 55.7197 30.7794 53.8703 32.425C52.9663 30.0006 52.7086 27.5546 52.7216 25.0732Z" fill="#50D9A3"/>
<path d="M145.676 38.4255C145.676 38.8672 145.332 39.226 144.908 39.226C144.482 39.226 144.139 38.8672 144.139 38.4255C144.139 37.9837 144.482 37.625 144.908 37.625C145.332 37.625 145.676 37.9837 145.676 38.4255Z" fill="white"/>
<path d="M162.838 26.5128C162.58 22.0649 161.078 18.3915 157.556 15.8884C154.156 13.4715 150.558 12.1766 146.805 11.948C146.689 11.9133 132.43 11.8501 130.606 11.9071C129.959 11.9275 129.712 12.0446 129.712 11.4629C129.712 8.64507 129.687 7.11164 129.646 4.29446C129.626 2.82113 129.141 2.86016 127.675 4.25543C125.6 6.23061 122.976 7.53604 120.168 7.69341C119.247 7.74483 118.672 8.19092 119.037 9.17108C119.339 9.97962 120.196 11.9071 118.533 11.9071C117.843 11.9071 102.184 11.904 101.153 11.904C96.4581 11.904 91.3219 14.2503 89.916 19.301C88.0815 25.8932 94.2698 30.4712 99.038 33.1558C101.377 34.473 103.764 35.6322 105.416 37.9184C106.993 40.0987 104.187 41.2393 104.187 41.2461C104.29 41.2982 105.323 41.8006 105.483 41.8638C105.875 42.0169 106.311 42.0094 106.729 41.9964C106.441 42.0497 106.146 42.0745 105.853 42.0695C105.599 42.0664 105.348 42.0466 105.098 42.0032C105.098 42.0032 105.665 42.9084 105.905 43.4202C105.742 43.1693 105.172 42.5373 105.076 42.4506C104.944 42.3304 103.308 41.4351 103.308 41.4351C101.146 41.7901 99.0851 41.2635 97.1018 40.2523C94.8701 39.1154 92.2716 37.3608 90.5201 35.5672C90.1279 35.1657 89.6614 34.4457 89.0716 34.8491C88.0666 35.5356 88.4774 36.8329 88.5059 36.9482C89.6775 41.7381 92.9724 45.6252 97.4977 47.2082C99.7988 48.0137 102.236 47.8972 104.658 47.8972C109.439 47.8972 111.562 46.3972 114.34 43.9766C115.619 42.8619 116.44 41.2932 116.87 39.6321C117.259 38.1303 117.525 36.2834 117.08 34.7667C116.447 32.6031 114.712 30.8213 112.891 29.6844C110.548 28.2234 107.995 27.1968 105.547 25.9527C103.937 25.1342 102.371 24.234 101.175 22.8028C100.06 21.4683 99.5665 19.9739 100.335 18.2539C101.155 16.4175 103.918 14.9157 105.83 15.249C107.046 15.4609 108.059 16.3271 108.199 17.6499C108.373 19.2954 107.068 20.4776 106.934 22.0494C106.858 22.9397 107.419 23.5525 108.074 24.0376C110.038 25.4942 112.559 25.7916 114.755 24.752C117.346 23.5246 118.344 21.4144 117.497 18.8878C117.155 17.8704 116.643 16.9931 115.999 16.2317C117.261 16.2329 118.568 16.2348 118.846 16.2348C119.564 16.2348 120.091 17.3023 120.09 18.091C120.082 23.2111 120.049 28.3331 120.171 33.4513C120.318 39.6854 122.935 44.3235 128.557 46.782C130.837 47.7782 133.249 48.1766 135.727 48.0006C136.03 47.9796 136.433 47.9567 136.497 47.5601C136.545 47.2621 136.262 47.0781 136.047 46.8978C135.912 46.7851 135.775 46.676 135.631 46.5756C134.278 45.6345 133.14 44.4691 132.269 43.0329C130.516 40.1439 129.836 36.942 129.814 33.5591C129.799 31.1651 129.789 19.8258 129.746 16.9783C129.735 16.2781 129.922 16.2298 130.558 16.2298H134.33C133.932 16.7707 133.58 17.3723 133.285 18.0452C132.21 20.4968 132.768 22.7644 134.794 24.1578C137.023 25.6912 140.489 25.5618 142.586 23.8709C143.455 23.1696 143.761 21.9429 143.323 20.8921C142.952 19.9999 142.527 19.1362 142.34 18.1592C142.055 16.6635 142.657 15.5359 144.02 15.1375C146.779 14.3315 150.489 16.2781 151.696 19.2093C152.864 22.0469 152.23 25.5041 149.078 27.0475C148.03 27.5605 146.945 27.939 145.828 28.2284C143.35 28.8709 140.243 29.2544 137.809 30.0964C136.068 30.6992 134.755 31.5009 133.606 33.1099C131.838 35.5888 132.234 39.287 133.834 42.2164C136.213 46.5707 140.142 47.7937 145.844 47.7937C145.18 45.86 142.856 45.0341 141.375 44.1544C139.598 43.0986 140.19 38.9593 140.19 38.9593C141.849 38.875 142.283 38.7059 143.823 35.4116C145.363 32.1174 150.418 34.5244 150.418 34.5244C151.997 32.2438 152.867 28.8225 152.867 28.8225C156.953 34.1446 155.828 39.2554 155.828 39.2554C157.408 42.1234 158.798 45.5329 159.516 48.0384C159.529 48.0384 163.171 48.3544 163.171 44.1866C163.171 44.1866 163.129 31.5294 162.838 26.5128Z" fill="white"/>
<path d="M102.953 37.3239C102.953 37.7657 102.609 38.1244 102.185 38.1244C101.76 38.1244 101.416 37.7657 101.416 37.3239C101.416 36.8822 101.76 36.5234 102.185 36.5234C102.609 36.5234 102.953 36.8822 102.953 37.3239Z" fill="white"/>
<path d="M214.992 7.29139C214.992 8.28332 214.253 9.06211 213.289 9.06211C212.336 9.06211 211.576 8.28332 211.576 7.29139C211.576 6.32115 212.336 5.54297 213.289 5.54297C214.253 5.54297 214.992 6.32115 214.992 7.29139ZM212.002 7.29139C212.002 8.07019 212.55 8.68852 213.3 8.68852C214.03 8.68852 214.567 8.07019 214.567 7.30254C214.567 6.52374 214.03 5.89488 213.289 5.89488C212.55 5.89488 212.002 6.52374 212.002 7.29139ZM213.026 8.20897H212.641V6.45993C212.792 6.42771 213.006 6.40665 213.279 6.40665C213.594 6.40665 213.735 6.45993 213.857 6.53428C213.949 6.60925 214.019 6.74803 214.019 6.91841C214.019 7.11048 213.877 7.25979 213.675 7.32361V7.34529C213.837 7.40911 213.928 7.53674 213.979 7.77155C214.03 8.03797 214.06 8.14515 214.1 8.20897H213.685C213.634 8.14515 213.603 7.98469 213.553 7.78209C213.522 7.59002 213.421 7.50514 213.208 7.50514H213.026V8.20897ZM213.036 7.21704H213.219C213.431 7.21704 213.603 7.14269 213.603 6.96116C213.603 6.80131 213.492 6.69475 213.249 6.69475C213.147 6.69475 213.076 6.70528 213.036 6.71581V7.21704Z" fill="white"/>
<path d="M198.964 40.1399C198.8 40.5476 198.984 41.0166 199.376 41.187C199.767 41.3574 200.218 41.1653 200.382 40.7576C200.546 40.35 200.361 39.8809 199.969 39.7106C199.578 39.5402 199.127 39.7322 198.964 40.1399Z" fill="white"/>
<path d="M195.265 17.7458C195.265 17.304 194.921 16.9453 194.496 16.9453C194.071 16.9453 193.728 17.304 193.728 17.7458C193.728 18.1875 194.071 18.5463 194.496 18.5463C194.921 18.5463 195.265 18.1875 195.265 17.7458Z" fill="white"/>
<path d="M214.303 42.1472C214.303 41.8418 214.286 40.9539 214.014 40.9539C213.414 40.9539 213.216 41.4192 212.917 41.7767C211.626 43.3201 210.049 43.9099 208.017 43.8882C205.263 43.8585 198.264 43.8882 197.523 43.8882C195.699 43.8882 195.348 42.628 196.284 41.0537C202.014 31.4237 207.739 23.3545 213.481 13.732C213.757 13.2698 213.927 12.8324 213.686 12.351C213.476 11.934 213.044 11.9619 212.638 11.96C203.494 11.921 180.48 11.9005 180.457 11.9049C178.55 11.9049 176.86 13.0715 175.4 14.6787C174.969 15.1539 174.043 15.4872 173.498 15.6892C173.498 14.9203 173.497 13.5882 173.496 13.5151C173.492 13.0957 173.531 12.6031 173.142 12.377C172.825 12.1911 172.559 12.421 172.314 12.6291C172.258 12.6756 166.792 16.1526 163.676 16.8335C162.701 17.0467 162.475 17.5671 163.007 18.4655C163.007 18.4655 164.745 21.3347 164.745 24.2107V41.9998C164.745 43.7172 164.647 45.3448 163.972 46.9142C163.577 47.8324 163.721 48.0337 164.681 48.0356C167.941 48.0406 171.201 48.0406 174.461 48.0356C175.427 48.0337 175.568 47.8311 175.189 46.926C174.558 45.4167 174.262 43.6738 174.259 42.0283C174.248 36.7452 174.263 31.6344 174.261 26.3513C174.261 24.207 174.467 22.0893 175.031 20.0212C175.347 18.8595 175.756 17.7431 176.446 16.7945C176.588 17.0318 177.416 18.1805 177.707 18.4865C178.617 19.4407 179.798 20.0565 180.868 20.5491C182.703 21.3936 184.513 21.3304 184.774 21.3874C184.389 21.6116 183.882 21.7294 183.414 21.7777C183.966 23.0354 184.856 24.2622 186.212 24.585C188.983 25.2448 191.612 22.5676 191.234 19.7102C191.055 18.3533 190.35 16.9841 189.555 15.8936H197.127C198.059 15.8936 201.262 15.6582 200.514 17.4698C200.282 18.0343 199.763 18.7418 199.452 19.2703C193.709 29.0012 188.166 37.1095 182.068 46.6217C181.869 46.9334 181.617 47.2351 181.819 47.6372C182.045 48.0858 182.471 48.0226 182.864 48.0226C187.649 48.0232 207.837 48.004 207.837 48.004C210.018 48.004 214.303 45.6973 214.303 42.1472ZM187.762 22.8557C187.338 22.8557 186.993 22.4976 186.993 22.0553C186.993 21.6135 187.338 21.2554 187.762 21.2554C188.187 21.2554 188.531 21.6135 188.531 22.0553C188.531 22.4976 188.187 22.8557 187.762 22.8557Z" fill="white"/>
</svg>
